<svg width="20" height="21" viewBox="0 0 20 21" fill="none" xmlns="http://www.w3.org/2000/svg">
<path d="M19.4156 9.29713H18.0519H3.83117V2.9662C3.83117 2.53754 4.15584 2.2078 4.57792 2.2078H7.07792V3.16404C6.3961 3.26296 5.84416 3.85648 5.84416 4.5819V6.03274C5.84416 6.36248 6.1039 6.62627 6.42857 6.62627H8.73377C9.05844 6.62627 9.31818 6.36248 9.31818 6.03274V4.5819C9.31818 3.92243 8.86364 3.36188 8.24675 3.19701V1.61428C8.24675 1.28454 7.98701 1.02075 7.66234 1.02075H4.57792C3.53896 1.02075 2.69481 1.87807 2.69481 2.93322V9.26416H2.17532H1.94805H0.584416C0.25974 9.26416 0 9.52795 0 9.85768C0 10.1874 0.25974 10.4512 0.584416 10.4512H1.36364V13.0891C1.36364 15.0345 2.79221 16.6502 4.64286 16.914L3.92857 18.5297C3.7987 18.8265 3.92857 19.1562 4.22078 19.2881C4.28571 19.3211 4.38312 19.3541 4.44805 19.3541C4.67532 19.3541 4.87013 19.2222 4.96753 19.0243L5.87662 16.98H14.8052C14.8701 16.98 14.9351 16.98 15.0325 16.98L15.9416 19.0243C16.039 19.2552 16.2338 19.3541 16.461 19.3541C16.526 19.3541 16.6234 19.3541 16.6883 19.2881C16.9805 19.1562 17.1104 18.8265 16.9805 18.5297L16.1688 16.7162C17.5974 16.1556 18.6364 14.7378 18.6364 13.0891V10.4512H19.4156C19.7403 10.4512 20 10.1874 20 9.85768C20 9.56092 19.7403 9.29713 19.4156 9.29713ZM8.14935 5.47219H6.98052V4.5819C6.98052 4.41703 7.11039 4.28514 7.27273 4.28514H7.85714C8.01948 4.28514 8.14935 4.41703 8.14935 4.5819V5.47219ZM17.5 13.0891C17.5 14.5729 16.2987 15.8259 14.8052 15.8259H5.19481C3.73377 15.8259 2.5 14.6059 2.5 13.0891V10.4512H17.5V13.0891Z" fill="#45525B"/>
</svg>
