<svg width="20" height="21" viewBox="0 0 20 21" fill="none" xmlns="http://www.w3.org/2000/svg">
<g clip-path="url(#clip0_4_129)">
<path d="M18.6544 13.4667C18.6544 13.4667 18.6544 13.4343 18.6544 13.4667C18.6544 13.4343 18.6544 13.4343 18.6544 13.4343L15.9449 7.42776V2.16802C15.9449 1.09659 15.0842 0.1875 14.0005 0.1875H5.96767C4.91576 0.1875 4.02322 1.06412 4.02322 2.16802V7.42776L1.31375 13.4343C1.28188 13.4992 1.25 13.5966 1.25 13.6615V19.6031C1.25 19.9278 1.50501 20.1875 1.82377 20.1875C2.14253 20.1875 2.39754 19.9278 2.39754 19.6031V17.8823H17.6025V19.6031C17.6025 19.9278 17.8575 20.1875 18.1762 20.1875C18.495 20.1875 18.75 19.9278 18.75 19.6031V13.6615C18.6862 13.5966 18.6862 13.5317 18.6544 13.4667ZM4.94763 8.10958H14.9886L17.2518 13.1096H2.7163L4.94763 8.10958ZM5.17076 2.16802C5.17076 1.71347 5.5214 1.32386 5.99954 1.32386H14.0005C14.4467 1.32386 14.8292 1.68101 14.8292 2.16802V6.97321H5.17076V2.16802ZM2.39754 16.7459V14.2459H17.6025V16.7459H2.39754Z" fill="#45525B"/>
</g>
<defs>
<clipPath id="clip0_4_129">
<rect width="20" height="20" fill="white" transform="translate(0 0.1875)"/>
</clipPath>
</defs>
</svg>
