<svg width="16" height="21" viewBox="0 0 16 21" fill="none" xmlns="http://www.w3.org/2000/svg">
<path d="M13.2201 0.1875C14.216 0.1875 15.0512 1.00051 15.0833 2.04116V18.3013C15.0833 19.342 14.2481 20.1875 13.2201 20.1875H2.77985C1.75188 20.1875 0.916656 19.342 0.916656 18.3013V2.04116C0.916656 1.00051 1.75188 0.1875 2.74772 0.1875H13.2201ZM13.188 1.29319H2.74772C2.33011 1.29319 2.00887 1.65091 2.00887 2.04116V18.3013C2.00887 18.7241 2.36223 19.0493 2.74772 19.0493H13.188C13.6056 19.0493 13.9269 18.6916 13.9269 18.3013V2.04116C13.9269 1.61839 13.5735 1.29319 13.188 1.29319ZM11.4854 8.87043C12.0637 8.87043 12.5777 9.35823 12.5777 9.97612C12.5777 10.594 12.0958 11.0818 11.4854 11.0818C10.8751 11.0818 10.3932 10.594 10.3932 9.97612C10.3932 9.35823 10.8751 8.87043 11.4854 8.87043Z" fill="#45525B"/>
</svg>
