<svg width="24" height="21" viewBox="0 0 24 21" fill="none" xmlns="http://www.w3.org/2000/svg">
<path d="M7.47097 20.1645C16.6065 20.1645 21.5613 12.6161 21.5613 6.07419C21.5613 5.91936 21.5613 5.64839 21.5226 5.41613C22.4903 4.71935 23.3419 3.82903 24 2.86129C23.071 3.2871 22.1419 3.51935 21.1742 3.63548C22.2194 3.01613 22.9935 2.04839 23.3419 0.887097C22.3742 1.42903 21.3677 1.85484 20.1677 2.0871C19.2387 1.11935 18 0.5 16.5677 0.5C13.8194 0.5 11.5742 2.74516 11.5742 5.49355C11.5742 5.88065 11.6129 6.26774 11.6903 6.65484C7.70323 6.38387 4.06452 4.40968 1.5871 1.42903C1.16129 2.20323 0.929032 3.01613 0.929032 3.90645C0.929032 5.64839 1.81935 7.11935 3.17419 8.00968C2.36129 7.97097 1.5871 7.73871 0.929032 7.39032C0.929032 7.42903 0.929032 7.42903 0.929032 7.42903C0.929032 9.79032 2.63226 11.8419 4.87742 12.3065C4.45161 12.4226 3.9871 12.4613 3.63871 12.4613C3.32903 12.4613 2.98065 12.4226 2.70968 12.3452C3.36774 14.3194 5.1871 15.7516 7.35484 15.7903C5.65161 17.1065 3.52258 17.9194 1.23871 17.9194C0.774194 17.9968 0.387097 17.9194 0 17.8806C2.09032 19.3516 4.68387 20.1645 7.47097 20.1645Z" fill="white"/>
</svg>
