<svg width="98" height="18" viewBox="0 0 98 18" fill="none" xmlns="http://www.w3.org/2000/svg">
<g clip-path="url(#clip0_8861_4)">
<path d="M17.5927 6.48942L11.9726 5.62002L9.42655 0.279449C9.24025 -0.0931496 8.74346 -0.0931496 8.55716 0.279449L6.01107 5.65107L0.422094 6.48942C0.0184458 6.55152 -0.136803 7.07937 0.173695 7.35882L4.24123 11.5505L3.27868 17.419C3.21658 17.8226 3.62023 18.1642 3.99283 17.9158L9.05395 15.1523L14.084 17.9158C14.4256 18.1021 14.8603 17.7916 14.7671 17.419L13.8046 11.5505L17.8721 7.35882C18.1205 7.07937 17.9963 6.55152 17.5927 6.48942Z" fill="#52503B"/>
</g>
<g clip-path="url(#clip1_8861_4)">
<path d="M57.5927 6.48942L51.9726 5.62002L49.4266 0.279449C49.2403 -0.0931496 48.7435 -0.0931496 48.5572 0.279449L46.0111 5.65107L40.4221 6.48942C40.0184 6.55152 39.8632 7.07937 40.1737 7.35882L44.2412 11.5505L43.2787 17.419C43.2166 17.8226 43.6202 18.1642 43.9928 17.9158L49.054 15.1523L54.084 17.9158C54.4256 18.1021 54.8603 17.7916 54.7671 17.419L53.8046 11.5505L57.8721 7.35882C58.1205 7.07937 57.9963 6.55152 57.5927 6.48942Z" fill="#52503B"/>
</g>
<g clip-path="url(#clip2_8861_4)">
<path d="M97.9322 6.78C97.8122 6.42 97.5122 6.15 97.1522 6.09L92.1422 5.31L89.8922 0.57C89.7122 0.21 89.3822 0 88.9922 0C88.6022 0 88.2722 0.21 88.1222 0.57L85.8722 5.34L80.8322 6.15C80.4722 6.21 80.1722 6.48 80.0522 6.84C79.9322 7.2 80.0222 7.62 80.2922 7.89L83.9222 11.61L83.0822 16.8C83.0222 17.19 83.1722 17.58 83.5022 17.82C83.6822 17.94 83.8622 18 84.0422 18C84.1922 18 84.3722 17.97 84.4922 17.88L88.9922 15.42L93.4622 17.85C93.7922 18.03 94.1822 18 94.4822 17.79C94.8122 17.55 94.9622 17.16 94.9022 16.77L94.0622 11.55L97.6922 7.83C97.9622 7.56 98.0522 7.14 97.9322 6.78ZM97.2422 7.41L93.6422 11.13C93.5222 11.25 93.4622 11.46 93.4922 11.64L94.3322 16.86C94.3622 17.07 94.2722 17.22 94.1522 17.28C94.0922 17.31 93.9422 17.4 93.7622 17.31L89.2622 14.88C89.0822 14.79 88.9022 14.79 88.7222 14.88L84.2222 17.34C84.0422 17.43 83.8922 17.37 83.8322 17.31C83.7422 17.25 83.6222 17.07 83.6522 16.89L84.5222 11.7C84.5522 11.52 84.4922 11.31 84.3722 11.19L80.7422 7.47C80.5922 7.32 80.5922 7.14 80.6222 7.02C80.6822 6.87 80.7722 6.78 80.9222 6.75L85.9622 5.94C86.1422 5.91 86.3222 5.79 86.3822 5.61L88.6322 0.84C88.7222 0.69 88.8422 0.6 88.9922 0.6C89.1422 0.6 89.2622 0.69 89.3222 0.84L91.5722 5.61C91.6622 5.79 91.8122 5.91 91.9922 5.94L97.0022 6.72C97.1522 6.75 97.2722 6.84 97.3022 6.99C97.3922 7.08 97.3922 7.29 97.2422 7.41Z" fill="#52503B"/>
</g>
<g clip-path="url(#clip3_8861_4)">
<path d="M37.5927 6.48942L31.9726 5.62002L29.4266 0.279449C29.2403 -0.0931496 28.7435 -0.0931496 28.5572 0.279449L26.0111 5.65107L20.4221 6.48942C20.0184 6.55152 19.8632 7.07937 20.1737 7.35882L24.2412 11.5505L23.2787 17.419C23.2166 17.8226 23.6202 18.1642 23.9928 17.9158L29.054 15.1523L34.084 17.9158C34.4256 18.1021 34.8603 17.7916 34.7671 17.419L33.8046 11.5505L37.8721 7.35882C38.1205 7.07937 37.9963 6.55152 37.5927 6.48942Z" fill="#52503B"/>
</g>
<g clip-path="url(#clip4_8861_4)">
<path d="M77.5927 6.48942L71.9726 5.62002L69.4266 0.279449C69.2403 -0.0931496 68.7435 -0.0931496 68.5572 0.279449L66.0111 5.65107L60.4221 6.48942C60.0184 6.55152 59.8632 7.07937 60.1737 7.35882L64.2412 11.5505L63.2787 17.419C63.2166 17.8226 63.6202 18.1642 63.9928 17.9158L69.054 15.1523L74.084 17.9158C74.4256 18.1021 74.8603 17.7916 74.7671 17.419L73.8046 11.5505L77.8721 7.35882C78.1205 7.07937 77.9963 6.55152 77.5927 6.48942Z" fill="#52503B"/>
</g>
<defs>
<clipPath id="clip0_8861_4">
<rect width="18" height="18" fill="white"/>
</clipPath>
<clipPath id="clip1_8861_4">
<rect width="18" height="18" fill="white" transform="translate(40)"/>
</clipPath>
<clipPath id="clip2_8861_4">
<rect width="18" height="18" fill="white" transform="translate(80)"/>
</clipPath>
<clipPath id="clip3_8861_4">
<rect width="18" height="18" fill="white" transform="translate(20)"/>
</clipPath>
<clipPath id="clip4_8861_4">
<rect width="18" height="18" fill="white" transform="translate(60)"/>
</clipPath>
</defs>
</svg>
