<svg width="98" height="18" viewBox="0 0 98 18" fill="none" xmlns="http://www.w3.org/2000/svg">
<g clip-path="url(#clip0_8861_3)">
<path d="M17.5927 6.48942L11.9726 5.62002L9.42655 0.279449C9.24025 -0.0931496 8.74346 -0.0931496 8.55716 0.279449L6.01107 5.65107L0.422094 6.48942C0.0184458 6.55152 -0.136803 7.07937 0.173695 7.35882L4.24123 11.5505L3.27868 17.419C3.21658 17.8226 3.62023 18.1642 3.99283 17.9158L9.05395 15.1523L14.084 17.9158C14.4256 18.1021 14.8603 17.7916 14.7671 17.419L13.8046 11.5505L17.8721 7.35882C18.1205 7.07937 17.9963 6.55152 17.5927 6.48942Z" fill="#52503B"/>
</g>
<g clip-path="url(#clip1_8861_3)">
<path d="M57.5927 6.48942L51.9726 5.62002L49.4266 0.279449C49.2403 -0.0931496 48.7435 -0.0931496 48.5572 0.279449L46.0111 5.65107L40.4221 6.48942C40.0184 6.55152 39.8632 7.07937 40.1737 7.35882L44.2412 11.5505L43.2787 17.419C43.2166 17.8226 43.6202 18.1642 43.9928 17.9158L49.054 15.1523L54.084 17.9158C54.4256 18.1021 54.8603 17.7916 54.7671 17.419L53.8046 11.5505L57.8721 7.35882C58.1205 7.07937 57.9963 6.55152 57.5927 6.48942Z" fill="#52503B"/>
</g>
<g clip-path="url(#clip2_8861_3)">
<path d="M97.5927 6.48942L91.9726 5.62002L89.4266 0.279449C89.2403 -0.0931496 88.7435 -0.0931496 88.5572 0.279449L86.0111 5.65107L80.4221 6.48942C80.0184 6.55152 79.8632 7.07937 80.1737 7.35882L84.2412 11.5505L83.2787 17.419C83.2166 17.8226 83.6202 18.1642 83.9928 17.9158L89.054 15.1523L94.084 17.9158C94.4256 18.1021 94.8603 17.7916 94.7671 17.419L93.8046 11.5505L97.8721 7.35882C98.1205 7.07937 97.9963 6.55152 97.5927 6.48942Z" fill="#52503B"/>
</g>
<g clip-path="url(#clip3_8861_3)">
<path d="M37.5927 6.48942L31.9726 5.62002L29.4266 0.279449C29.2403 -0.0931496 28.7435 -0.0931496 28.5572 0.279449L26.0111 5.65107L20.4221 6.48942C20.0184 6.55152 19.8632 7.07937 20.1737 7.35882L24.2412 11.5505L23.2787 17.419C23.2166 17.8226 23.6202 18.1642 23.9928 17.9158L29.054 15.1523L34.084 17.9158C34.4256 18.1021 34.8603 17.7916 34.7671 17.419L33.8046 11.5505L37.8721 7.35882C38.1205 7.07937 37.9963 6.55152 37.5927 6.48942Z" fill="#52503B"/>
</g>
<g clip-path="url(#clip4_8861_3)">
<path d="M77.5927 6.48942L71.9726 5.62002L69.4266 0.279449C69.2403 -0.0931496 68.7435 -0.0931496 68.5572 0.279449L66.0111 5.65107L60.4221 6.48942C60.0184 6.55152 59.8632 7.07937 60.1737 7.35882L64.2412 11.5505L63.2787 17.419C63.2166 17.8226 63.6202 18.1642 63.9928 17.9158L69.054 15.1523L74.084 17.9158C74.4256 18.1021 74.8603 17.7916 74.7671 17.419L73.8046 11.5505L77.8721 7.35882C78.1205 7.07937 77.9963 6.55152 77.5927 6.48942Z" fill="#52503B"/>
</g>
<defs>
<clipPath id="clip0_8861_3">
<rect width="18" height="18" fill="white"/>
</clipPath>
<clipPath id="clip1_8861_3">
<rect width="18" height="18" fill="white" transform="translate(40)"/>
</clipPath>
<clipPath id="clip2_8861_3">
<rect width="18" height="18" fill="white" transform="translate(80)"/>
</clipPath>
<clipPath id="clip3_8861_3">
<rect width="18" height="18" fill="white" transform="translate(20)"/>
</clipPath>
<clipPath id="clip4_8861_3">
<rect width="18" height="18" fill="white" transform="translate(60)"/>
</clipPath>
</defs>
</svg>
