<svg width="24" height="22" viewBox="0 0 24 22" fill="none" xmlns="http://www.w3.org/2000/svg">
<path d="M23.8829 9.03006L23.922 8.9918C23.922 8.9918 23.922 8.95355 23.961 8.9153C23.961 8.87705 23.961 8.87705 24 8.8388V8.80055C24 8.7623 24 8.76229 24 8.72404V8.68579V8.64754C24 8.64754 24 8.64754 24 8.60929C23.1805 3.98087 18.0293 0.5 11.9805 0.5C5.93171 0.5 0.780488 3.98087 0 8.57104C0 8.57104 0 8.57104 0 8.60929V8.64754V8.68579C0 8.72404 0 8.72404 0 8.76229C0 8.80055 0 8.80055 0 8.8388C0 8.87705 0 8.87705 0.0390244 8.9153C0.0390244 8.95355 0.0390244 8.95355 0.0780488 8.9918C0.0780488 9.03005 0.117073 9.03005 0.117073 9.06831L0.156098 9.10656L0.195122 9.14481L0.234146 9.18306L0.273171 9.22131L0.312195 9.25956C0.312195 9.25956 0.35122 9.29781 0.390244 9.29781C0.390244 9.29781 0.429268 9.33607 0.468293 9.33607C0.468293 9.33607 0.507317 9.33607 0.546341 9.33607C0.585366 9.33607 0.585366 9.33607 0.62439 9.33607H0.663415H0.702439H3.12195V20.0847H2.49756C2.10732 20.0847 1.79512 20.3907 1.79512 20.7732C1.79512 21.1557 2.10732 21.4617 2.49756 21.4617H9.13171C9.52195 21.4617 9.83415 21.1557 9.83415 20.7732C9.83415 20.3907 9.52195 20.0847 9.13171 20.0847H8.54634V9.37432H15.4927V20.123H14.8293C14.439 20.123 14.1268 20.429 14.1268 20.8115C14.1268 21.194 14.439 21.5 14.8293 21.5H21.4634C21.8537 21.5 22.1659 21.194 22.1659 20.8115C22.1659 20.429 21.8537 20.123 21.4634 20.123H20.9561V9.37432H23.2976C23.3366 9.37432 23.3756 9.37432 23.4146 9.37432C23.4537 9.37432 23.4537 9.37432 23.4927 9.37432C23.5317 9.37432 23.5317 9.37432 23.5707 9.37432C23.6098 9.37432 23.6098 9.37432 23.6488 9.33607C23.6878 9.33607 23.6878 9.29781 23.7268 9.29781L23.7659 9.25956L23.8049 9.22131L23.8439 9.18306L23.8829 9.14481C23.8829 9.06831 23.8829 9.06831 23.8829 9.03006ZM11.9805 1.8388C17.0146 1.8388 21.3463 4.47814 22.439 8.07377H1.52195C2.61463 4.43989 6.94634 1.8388 11.9805 1.8388ZM7.18049 20.123H4.44878V9.37432H7.18049V20.123ZM19.5902 20.123H16.8585V9.37432H19.5902V20.123Z" fill="white"/>
</svg>
