<svg width="24" height="24" viewBox="0 0 24 24" fill="none" xmlns="http://www.w3.org/2000/svg">
<path d="M3.7013 14.5813C4.05195 14.4236 4.44156 14.5813 4.5974 14.936C4.75325 15.2906 4.5974 15.6847 4.24675 15.8424C2.45455 16.6305 1.4026 17.6158 1.4026 18.5616C1.4026 20.4926 5.72727 22.6601 12 22.6601C18.2727 22.6601 22.6364 20.4926 22.5974 18.5616C22.5974 17.6158 21.5844 16.6305 19.8312 15.8818C19.4805 15.7241 19.3247 15.33 19.4805 14.9754C19.6364 14.6207 20.026 14.4631 20.3766 14.6207C22.7143 15.6453 24 17.0246 24 18.5616C24 21.6355 18.8571 24 12 24C5.14286 24 0 21.6749 0 18.5616C0 17.0246 1.32468 15.6059 3.7013 14.5813ZM12 0C16.3247 0 19.8312 3.5468 19.8312 7.92118C19.8312 11.1921 15.7403 16.3153 13.2857 19.0739C12.974 19.468 12.5065 19.665 12 19.665C11.4935 19.665 11.026 19.4286 10.7143 19.0739C8.25974 16.3153 4.16883 11.1921 4.16883 7.92118C4.16883 3.5468 7.67532 0 12 0ZM12 1.37931C8.45455 1.37931 5.53247 4.29557 5.53247 7.92118C5.53247 9.93103 7.87013 13.7537 11.7273 18.1281C11.8052 18.2463 11.961 18.2463 12 18.2463C12.039 18.2463 12.1558 18.2463 12.2727 18.1281C16.1688 13.7537 18.4675 9.93103 18.4675 7.92118C18.4675 4.29557 15.5455 1.37931 12 1.37931Z" fill="white"/>
</svg>
