<svg width="14" height="24" viewBox="0 0 14 24" fill="none" xmlns="http://www.w3.org/2000/svg">
<path d="M13.8017 15.0244C13.8017 13.8146 12.8102 12.839 11.5807 12.839H11.3031L12.2153 5.54146V5.50244C12.2946 4.05854 11.779 2.69268 10.7479 1.63902C9.71671 0.585366 8.36827 0 6.90085 0C5.43343 0 4.04533 0.585366 3.05382 1.63902C2.02266 2.69268 1.50708 4.05854 1.5864 5.50244V5.54146L2.49858 12.839H2.22096C0.991501 12.839 0 13.8146 0 15.0244V16.7024C0 17.2878 0.23796 17.8341 0.634561 18.2244V23.2976C0.634561 23.6878 0.951841 24 1.34844 24C1.74504 24 2.06232 23.6878 2.06232 23.2976V18.8878C2.14164 18.8878 2.22096 18.8878 2.26062 18.8878H3.92635V22.2049C3.92635 22.5951 4.24363 22.9073 4.64023 22.9073C5.03683 22.9073 5.35411 22.5951 5.35411 22.2049V18.8878H8.64589V22.2049C8.64589 22.5951 8.96317 22.9073 9.35977 22.9073C9.75637 22.9073 10.0737 22.5951 10.0737 22.2049V18.8878H11.7394C11.8187 18.8878 11.898 18.8878 11.9377 18.8878V23.2976C11.9377 23.6878 12.255 24 12.6516 24C13.0482 24 13.3654 23.6878 13.3654 23.2976V18.2634C13.762 17.8732 14 17.3268 14 16.7415V15.0244H13.8017ZM2.89518 5.38537C2.85552 4.33171 3.25212 3.31707 3.96601 2.53659C4.71955 1.7561 5.75071 1.32683 6.82153 1.32683C7.93201 1.32683 8.92351 1.7561 9.67705 2.53659C10.4306 3.31707 10.8272 4.33171 10.7479 5.38537L9.83569 12.8H3.84703L2.89518 5.38537ZM2.1813 17.561C2.02266 17.561 1.86402 17.522 1.74504 17.4439C1.70538 17.4049 1.66572 17.4049 1.62606 17.3659C1.42776 17.2098 1.30878 16.9756 1.30878 16.7415V15.0634C1.30878 14.5951 1.70538 14.2439 2.14164 14.2439H3.1728H10.4703H11.5014C11.9773 14.2439 12.3343 14.6341 12.3343 15.0634V16.7415C12.3343 17.0146 12.2153 17.2098 12.017 17.3659C11.9773 17.4049 11.9377 17.4049 11.898 17.4439C11.779 17.522 11.6204 17.561 11.4618 17.561H2.1813Z" fill="white"/>
</svg>
